<?xml version="1.0" standalone="no"?>
<!DOCTYPE svg PUBLIC "-//W3C//DTD SVG 20010904//EN"
 "http://www.w3.org/TR/2001/REC-SVG-20010904/DTD/svg10.dtd">
<svg version="1.0" xmlns="http://www.w3.org/2000/svg"
 width="185.000000pt" height="44.000000pt" viewBox="0 0 185.000000 44.000000"
 preserveAspectRatio="xMidYMid meet">

<g transform="translate(0.000000,44.000000) scale(0.100000,-0.100000)"
fill="#000000" stroke="none">
<path d="M10 215 l0 -215 35 0 35 0 0 90 0 90 45 0 c43 0 45 1 45 30 0 29 -2
30 -45 30 l-45 0 0 65 0 65 60 0 60 0 0 30 0 30 -95 0 -95 0 0 -215z"/>
<path d="M282 218 l3 -213 38 -3 37 -3 0 215 0 216 -40 0 -40 0 2 -212z"/>
<path d="M492 218 l3 -213 95 0 95 0 3 38 3 37 -60 0 -61 0 0 175 0 175 -40 0
-40 0 2 -212z"/>
<path d="M792 218 l3 -213 38 -3 37 -3 0 118 1 118 27 -30 c15 -17 36 -43 47
-58 35 -48 55 -37 140 78 13 18 14 8 15 -102 l0 -123 40 0 40 0 0 215 0 215
-29 0 c-25 0 -36 -10 -75 -67 -25 -38 -57 -81 -71 -98 l-25 -30 -22 26 c-13
15 -43 59 -68 98 -38 61 -48 71 -72 71 l-28 0 2 -212z"/>
<path d="M1310 215 l0 -216 83 3 82 3 3 33 3 32 -50 0 -51 0 0 180 0 180 -35
0 -35 0 0 -215z"/>
<path d="M1572 218 l3 -213 38 -3 37 -3 0 95 c0 57 4 96 10 96 6 0 10 -5 10
-10 0 -6 21 -48 48 -95 l47 -85 43 0 44 0 -42 77 c-24 43 -53 96 -66 118 l-23
40 55 90 c31 50 58 93 61 98 2 4 -14 7 -35 7 -39 0 -40 -1 -96 -92 l-56 -93 0
93 0 92 -40 0 -40 0 2 -212z"/>
</g>
</svg>
