<svg width="23" height="27" viewBox="0 0 23 27" fill="none" xmlns="http://www.w3.org/2000/svg">
<path d="M3.36595 14.951L4.22266 15.4668L4.2249 15.4631L3.36595 14.951ZM1.93226 17.3322L1.07556 16.8164L1.07541 16.8166L1.93226 17.3322ZM3.27868 20.985L2.95808 21.9322L2.9618 21.9335L3.27868 20.985ZM19.8223 20.985L19.5084 20.0355L19.5054 20.0365L19.8223 20.985ZM21.1687 17.3322L22.0262 16.8177L22.0254 16.8164L21.1687 17.3322ZM19.735 14.951L18.8688 15.4507L18.8735 15.4588L18.8783 15.4668L19.735 14.951ZM13.5835 2.62078C14.1138 2.77477 14.6686 2.46963 14.8226 1.93925C14.9766 1.40886 14.6715 0.854074 14.1411 0.700091L13.5835 2.62078ZM12.6654 1.4111L12.5414 2.40338L12.5451 2.40383L12.6654 1.4111ZM8.97037 0.700188C8.44004 0.854354 8.1351 1.40925 8.28926 1.93958C8.44343 2.46991 8.99832 2.77485 9.52865 2.62069L8.97037 0.700188ZM11.5567 1.29977V0.299774C6.87788 0.299774 3.07656 4.10108 3.07656 8.77991H4.07656H5.07656C5.07656 5.20565 7.98244 2.29977 11.5567 2.29977V1.29977ZM4.07656 8.77991H3.07656V12.3828H4.07656H5.07656V8.77991H4.07656ZM4.07656 12.3828H3.07656C3.07656 12.6426 3.01743 13.0279 2.90262 13.4415C2.7879 13.8548 2.63985 14.2161 2.507 14.439L3.36595 14.951L4.2249 15.4631C4.47852 15.0377 4.68578 14.4951 4.82975 13.9765C4.97363 13.4582 5.07656 12.8836 5.07656 12.3828H4.07656ZM3.36595 14.951L2.50925 14.4352L1.07556 16.8164L1.93226 17.3322L2.78896 17.848L4.22265 15.4668L3.36595 14.951ZM1.93226 17.3322L1.07541 16.8166C0.491449 17.7872 0.367945 18.8794 0.728003 19.8518C1.08762 20.823 1.89119 21.5711 2.95809 21.9322L3.27868 20.985L3.59928 20.0378C3.04548 19.8503 2.73326 19.5076 2.60355 19.1573C2.47429 18.8082 2.48792 18.3483 2.78911 17.8478L1.93226 17.3322ZM3.27868 20.985L2.9618 21.9335C8.5407 23.7974 14.5602 23.7974 20.1391 21.9335L19.8223 20.985L19.5054 20.0365C14.3378 21.7631 8.76313 21.7631 3.59557 20.0365L3.27868 20.985ZM19.8223 20.985L20.1361 21.9345C22.2567 21.2335 23.1767 18.7352 22.0262 16.8177L21.1687 17.3322L20.3112 17.8467C20.8063 18.6719 20.4048 19.7392 19.5084 20.0355L19.8223 20.985ZM21.1687 17.3322L22.0254 16.8164L20.5917 14.4352L19.735 14.951L18.8783 15.4668L20.312 17.848L21.1687 17.3322ZM19.735 14.951L20.6012 14.4513C20.4703 14.2245 20.3237 13.8591 20.2101 13.4445C20.0961 13.0289 20.0368 12.6429 20.0368 12.3828H19.0368H18.0368C18.0368 12.8833 18.1397 13.4573 18.2813 13.9735C18.4231 14.4908 18.6257 15.0293 18.8688 15.4507L19.735 14.951ZM19.0368 12.3828H20.0368V8.77991H19.0368H18.0368V12.3828H19.0368ZM19.0368 8.77991H20.0368C20.0368 4.11355 16.2231 0.299774 11.5567 0.299774V1.29977V2.29977C15.1185 2.29977 18.0368 5.21812 18.0368 8.77991H19.0368ZM13.8623 1.66044L14.1411 0.700091C13.7111 0.575273 13.2588 0.475707 12.7858 0.418366L12.6654 1.4111L12.5451 2.40383C12.8949 2.44623 13.2404 2.5212 13.5835 2.62078L13.8623 1.66044ZM12.6654 1.4111L12.7895 0.418822C11.4652 0.253287 10.1806 0.348377 8.97037 0.700188L9.24951 1.66044L9.52865 2.62069C10.4627 2.34915 11.472 2.26971 12.5414 2.40338L12.6654 1.4111ZM15.2955 21.4343H14.2955C14.2955 22.9391 13.0602 24.1744 11.5554 24.1744V25.1744V26.1744C14.1647 26.1744 16.2955 24.0436 16.2955 21.4343H15.2955ZM11.5554 25.1744V24.1744C10.8098 24.1744 10.1134 23.8641 9.61952 23.3702L8.91242 24.0773L8.20531 24.7844C9.05782 25.6369 10.2565 26.1744 11.5554 26.1744V25.1744ZM8.91242 24.0773L9.61952 23.3702C9.12561 22.8763 8.81533 22.1799 8.81533 21.4343H7.81533H6.81533C6.81533 22.7332 7.3528 23.9319 8.20531 24.7844L8.91242 24.0773Z" fill="#FFFFFE"/>
</svg>
