<svg width="42" height="42" viewBox="0 0 42 42" fill="none" xmlns="http://www.w3.org/2000/svg">
<rect width="42" height="42" rx="21" fill="#7F5AF0"/>
<path d="M13.9375 25.1875C16.3958 24.1875 18.75 23.6875 21 23.6875C23.25 23.6875 25.5833 24.1875 28 25.1875C30.4583 26.1458 31.6875 27.4167 31.6875 29V31.6875H10.3125V29C10.3125 27.4167 11.5208 26.1458 13.9375 25.1875ZM24.75 19.4375C23.7083 20.4792 22.4583 21 21 21C19.5417 21 18.2917 20.4792 17.25 19.4375C16.2083 18.3958 15.6875 17.1458 15.6875 15.6875C15.6875 14.2292 16.2083 12.9792 17.25 11.9375C18.2917 10.8542 19.5417 10.3125 21 10.3125C22.4583 10.3125 23.7083 10.8542 24.75 11.9375C25.7917 12.9792 26.3125 14.2292 26.3125 15.6875C26.3125 17.1458 25.7917 18.3958 24.75 19.4375Z" fill="white"/>
</svg>
